<svg xmlns="http://www.w3.org/2000/svg" viewBox="0 0 500 250" width="500" height="250">
  <defs>
    <path id="star" d="M0,-12 L2.82,-3.88 L11.41,-3.71 L4.57,1.48 L7.05,9.71 L0,4.8 L-7.05,9.71 L-4.57,1.48 L-11.41,-3.71 L-2.82,-3.88 Z" stroke-linejoin="round"></path>
    <path id="sparkle" d="M0,-10 C2,-2 2,-2 10,0 C2,2 2,2 0,10 C-2,2 -2,2 -10,0 C-2,-2 -2,-2 0,-10 Z"></path>
    <g id="mark">
      <use href="#sparkle" transform="translate(50,52) scale(1.1) rotate(-8)" fill="#FF6BA6"></use>
      <use href="#star" transform="translate(156,40) scale(1.5)" fill="#FFC93C"></use>
      <use href="#sparkle" transform="translate(108,24) scale(0.7)" fill="#FFE08A"></use>
      <g fill="#2BC4BF">
        <rect x="34" y="84" width="136" height="34" rx="22"></rect>
        <circle cx="64" cy="88" r="28"></circle>
        <circle cx="100" cy="70" r="40"></circle>
        <circle cx="140" cy="88" r="30"></circle>
        <circle cx="120" cy="68" r="24"></circle>
      </g>
      <circle cx="88" cy="92" r="5.5" fill="#0E7C78"></circle>
      <circle cx="112" cy="92" r="5.5" fill="#0E7C78"></circle>
      <path d="M89,101 Q100,111 111,101" fill="none" stroke="#0E7C78" stroke-width="4.5" stroke-linecap="round"></path>
      <circle cx="76" cy="100" r="6" fill="#FF8FBA" opacity="0.65"></circle>
      <circle cx="124" cy="100" r="6" fill="#FF8FBA" opacity="0.65"></circle>
    </g>
  </defs>
  <use href="#mark" transform="translate(147,13)"></use>
  <path d="M84.85 200L68.10 200Q65.90 200 64.67 198.78Q63.45 197.55 63.45 195.35L63.45 195.35L63.45 169.35Q63.45 167.10 64.65 165.90Q65.85 164.70 68.05 164.70L68.05 164.70Q70.30 164.70 71.47 165.90Q72.65 167.10 72.65 169.35L72.65 169.35L72.65 192.35L84.85 192.35Q86.75 192.35 87.78 193.32Q88.80 194.30 88.80 196.15L88.80 196.15Q88.80 198 87.78 199Q86.75 200 84.85 200L84.85 200ZM96.50 200.45L96.50 200.45Q94.40 200.45 93.25 199.20Q92.10 197.95 92.10 195.60L92.10 195.60L92.10 179.80Q92.10 177.45 93.25 176.20Q94.40 174.95 96.50 174.95L96.50 174.95Q98.65 174.95 99.83 176.20Q101 177.45 101 179.80L101 179.80L101 195.60Q101 197.95 99.85 199.20Q98.70 200.45 96.50 200.45ZM96.50 171.40L96.50 171.40Q94.15 171.40 92.88 170.30Q91.60 169.20 91.60 167.10L91.60 167.10Q91.60 165.05 92.88 163.95Q94.15 162.85 96.50 162.85L96.50 162.85Q98.95 162.85 100.20 163.95Q101.45 165.05 101.45 167.10L101.45 167.10Q101.45 169.20 100.20 170.30Q98.95 171.40 96.50 171.40ZM119.05 200.55L119.05 200.55Q115.30 200.55 112.88 199.40Q110.45 198.25 109.25 195.93Q108.05 193.60 108.05 190.10L108.05 190.10L108.05 181.95L106.35 181.95Q104.75 181.95 103.88 181.10Q103 180.25 103 178.65L103 178.65Q103 177.05 103.88 176.22Q104.75 175.40 106.35 175.40L106.35 175.40L108.05 175.40L108.05 172.30Q108.05 170.10 109.20 168.95Q110.35 167.80 112.50 167.80L112.50 167.80Q114.65 167.80 115.80 168.95Q116.95 170.10 116.95 172.30L116.95 172.30L116.95 175.40L121.05 175.40Q122.70 175.40 123.58 176.22Q124.45 177.05 124.45 178.65L124.45 178.65Q124.45 180.25 123.58 181.10Q122.70 181.95 121.05 181.95L121.05 181.95L116.95 181.95L116.95 189.80Q116.95 191.65 117.83 192.53Q118.70 193.40 120.60 193.40L120.60 193.40Q121.30 193.40 121.95 193.25Q122.60 193.10 123.15 193.10L123.15 193.10Q123.95 193.05 124.45 193.57Q124.95 194.10 124.95 195.95L124.95 195.95Q124.95 197.45 124.50 198.47Q124.05 199.50 122.90 199.95L122.90 199.95Q122.20 200.20 121 200.38Q119.80 200.55 119.05 200.55ZM138.10 200.55L138.10 200.55Q134.35 200.55 131.92 199.40Q129.50 198.25 128.30 195.93Q127.10 193.60 127.10 190.10L127.10 190.10L127.10 181.95L125.40 181.95Q123.80 181.95 122.92 181.10Q122.05 180.25 122.05 178.65L122.05 178.65Q122.05 177.05 122.92 176.22Q123.80 175.40 125.40 175.40L125.40 175.40L127.10 175.40L127.10 172.30Q127.10 170.10 128.25 168.95Q129.40 167.80 131.55 167.80L131.55 167.80Q133.70 167.80 134.85 168.95Q136 170.10 136 172.30L136 172.30L136 175.40L140.10 175.40Q141.75 175.40 142.63 176.22Q143.50 177.05 143.50 178.65L143.50 178.65Q143.50 180.25 142.63 181.10Q141.75 181.95 140.10 181.95L140.10 181.95L136 181.95L136 189.80Q136 191.65 136.88 192.53Q137.75 193.40 139.65 193.40L139.65 193.40Q140.35 193.40 141 193.25Q141.65 193.10 142.20 193.10L142.20 193.10Q143 193.05 143.50 193.57Q144 194.10 144 195.95L144 195.95Q144 197.45 143.55 198.47Q143.10 199.50 141.95 199.95L141.95 199.95Q141.25 200.20 140.05 200.38Q138.85 200.55 138.10 200.55ZM156.70 200.55L156.70 200.55Q151.90 200.55 149.63 197.97Q147.35 195.40 147.35 190.20L147.35 190.20L147.35 168.80Q147.35 166.60 148.50 165.45Q149.65 164.30 151.75 164.30L151.75 164.30Q153.90 164.30 155.07 165.45Q156.25 166.60 156.25 168.80L156.25 168.80L156.25 189.90Q156.25 191.75 156.97 192.60Q157.70 193.45 158.85 193.45L158.85 193.45Q159.20 193.45 159.57 193.38Q159.95 193.30 160.40 193.25L160.40 193.25Q161.25 193.25 161.68 193.90Q162.10 194.55 162.10 196.55L162.10 196.55Q162.10 198.30 161.40 199.18Q160.70 200.05 159.25 200.30L159.25 200.30Q158.85 200.35 158.10 200.45Q157.35 200.55 156.70 200.55ZM177.90 200.55L177.90 200.55Q173.40 200.55 170.13 198.97Q166.85 197.40 165.10 194.50Q163.35 191.60 163.35 187.65L163.35 187.65Q163.35 183.85 165.03 180.97Q166.70 178.10 169.63 176.47Q172.55 174.85 176.30 174.85L176.30 174.85Q179.05 174.85 181.30 175.72Q183.55 176.60 185.15 178.28Q186.75 179.95 187.58 182.30Q188.40 184.65 188.40 187.55L188.40 187.55Q188.40 188.55 187.85 189.03Q187.30 189.50 186.10 189.50L186.10 189.50L171.85 189.50Q172.20 191.45 173.30 192.45L173.30 192.45Q174.85 194 178.15 194L178.15 194Q179.25 194 180.68 193.72Q182.10 193.45 183.40 192.95Q184.70 192.45 185.65 192.78Q186.60 193.10 187.13 193.88Q187.65 194.65 187.70 195.63Q187.75 196.60 187.25 197.53Q186.75 198.45 185.60 198.95L185.60 198.95Q183.85 199.75 181.88 200.15Q179.90 200.55 177.90 200.55ZM171.80 185.30L171.80 185.30L181.10 185.30Q181 183.90 180.60 182.95L180.60 182.95Q180.10 181.80 179.13 181.20Q178.15 180.60 176.70 180.60L176.70 180.60Q175.15 180.60 174.03 181.32Q172.90 182.05 172.30 183.45L172.30 183.45Q171.95 184.25 171.80 185.30Z" fill="#FF6BA6"></path>
  <path d="M221.75 200L211.95 200Q209.60 200 208.38 198.78Q207.15 197.55 207.15 195.25L207.15 195.25L207.15 169.50Q207.15 167.20 208.38 165.97Q209.60 164.75 211.95 164.75L211.95 164.75L221.75 164.75Q230.95 164.75 235.97 169.35Q241 173.95 241 182.35L241 182.35Q241 186.55 239.70 189.82Q238.40 193.10 235.95 195.38Q233.50 197.65 229.92 198.82Q226.35 200 221.75 200L221.75 200ZM216.35 172.20L216.35 192.55L221.15 192.55Q223.80 192.55 225.72 191.90Q227.65 191.25 228.92 190Q230.20 188.75 230.82 186.85Q231.45 184.95 231.45 182.35L231.45 182.35Q231.45 177.15 228.90 174.68Q226.35 172.20 221.15 172.20L221.15 172.20L216.35 172.20ZM250.40 200.45L250.40 200.45Q248.20 200.45 247.03 199.30Q245.85 198.15 245.85 195.95L245.85 195.95L245.85 179.40Q245.85 177.25 246.97 176.10Q248.10 174.95 250.20 174.95Q252.30 174.95 253.40 176.10Q254.50 177.25 254.50 179.40L254.50 179.40L254.50 179.60Q255.20 177.85 256.60 176.70L256.60 176.70Q258.65 174.95 261.75 174.85L261.75 174.85Q263.20 174.80 263.93 175.57Q264.65 176.35 264.70 178.45L264.70 178.45Q264.70 180.25 263.95 181.30Q263.20 182.35 261.10 182.55L261.10 182.55L259.95 182.65Q257.30 182.90 256.10 184.13Q254.90 185.35 254.90 187.75L254.90 187.75L254.90 195.95Q254.90 198.15 253.75 199.30Q252.60 200.45 250.40 200.45ZM280.50 200.55L280.50 200.55Q276 200.55 272.73 198.97Q269.45 197.40 267.70 194.50Q265.95 191.60 265.95 187.65L265.95 187.65Q265.95 183.85 267.63 180.97Q269.30 178.10 272.23 176.47Q275.15 174.85 278.90 174.85L278.90 174.85Q281.65 174.85 283.90 175.72Q286.15 176.60 287.75 178.28Q289.35 179.95 290.18 182.30Q291 184.65 291 187.55L291 187.55Q291 188.55 290.45 189.03Q289.90 189.50 288.70 189.50L288.70 189.50L274.45 189.50Q274.80 191.45 275.90 192.45L275.90 192.45Q277.45 194 280.75 194L280.75 194Q281.85 194 283.27 193.72Q284.70 193.45 286 192.95Q287.30 192.45 288.25 192.78Q289.20 193.10 289.73 193.88Q290.25 194.65 290.30 195.63Q290.35 196.60 289.85 197.53Q289.35 198.45 288.20 198.95L288.20 198.95Q286.45 199.75 284.48 200.15Q282.50 200.55 280.50 200.55ZM274.40 185.30L274.40 185.30L283.70 185.30Q283.60 183.90 283.20 182.95L283.20 182.95Q282.70 181.80 281.73 181.20Q280.75 180.60 279.30 180.60L279.30 180.60Q277.75 180.60 276.63 181.32Q275.50 182.05 274.90 183.45L274.90 183.45Q274.55 184.25 274.40 185.30ZM303.40 200.55L303.40 200.55Q300.55 200.55 298.38 199.50Q296.20 198.45 294.98 196.63Q293.75 194.80 293.75 192.45L293.75 192.45Q293.75 189.75 295.15 188.20Q296.55 186.65 299.65 185.97Q302.75 185.30 307.90 185.30L307.90 185.30L309.80 185.30L309.80 184.60Q309.80 182.80 308.88 182.05Q307.95 181.30 305.70 181.30L305.70 181.30Q304.50 181.30 303 181.57Q301.50 181.85 299.65 182.55L299.65 182.55Q298.30 183.05 297.35 182.70Q296.40 182.35 295.88 181.50Q295.35 180.65 295.38 179.65Q295.40 178.65 296.02 177.75Q296.65 176.85 297.95 176.35L297.95 176.35Q300.35 175.45 302.38 175.15Q304.40 174.85 306.10 174.85L306.10 174.85Q310.20 174.85 312.88 176.03Q315.55 177.20 316.88 179.63Q318.20 182.05 318.20 185.85L318.20 185.85L318.20 195.95Q318.20 198.15 317.15 199.30Q316.10 200.45 314.10 200.45L314.10 200.45Q312.05 200.45 311 199.30L311 199.30Q310.05 198.30 309.90 196.50L309.90 196.50Q309.60 197.40 309.05 198.10L309.05 198.10Q308.15 199.25 306.70 199.90Q305.25 200.55 303.40 200.55ZM309.80 190.40L309.80 189.50L307.90 189.50Q305.95 189.50 304.68 189.78Q303.40 190.05 302.80 190.63Q302.20 191.20 302.20 192.10L302.20 192.10Q302.20 193.25 303.02 194Q303.85 194.75 305.40 194.75L305.40 194.75Q306.65 194.75 307.63 194.20Q308.60 193.65 309.20 192.68Q309.80 191.70 309.80 190.40L309.80 190.40ZM327.75 200.45L327.75 200.45Q325.65 200.45 324.50 199.30Q323.35 198.15 323.35 195.95L323.35 195.95L323.35 179.40Q323.35 177.25 324.47 176.10Q325.60 174.95 327.70 174.95Q329.80 174.95 330.90 176.10L330.90 176.10Q331.85 177.05 331.95 178.75L331.95 178.75Q332.95 177.20 334.60 176.15L334.60 176.15Q336.65 174.85 339.50 174.85L339.50 174.85Q342.20 174.85 344.15 176.15L344.15 176.15Q345.75 177.25 346.60 179.30L346.60 179.30Q347.75 177.40 349.65 176.25L349.65 176.25Q351.95 174.85 354.75 174.85L354.75 174.85Q357.65 174.85 359.50 175.97Q361.35 177.10 362.27 179.47Q363.20 181.85 363.20 185.45L363.20 185.45L363.20 195.95Q363.20 198.15 362.02 199.30Q360.85 200.45 358.70 200.45L358.70 200.45Q356.60 200.45 355.45 199.30Q354.30 198.15 354.30 195.95L354.30 195.95L354.30 185.70Q354.30 183.55 353.65 182.60Q353 181.65 351.50 181.65L351.50 181.65Q349.65 181.65 348.67 182.95Q347.70 184.25 347.70 186.65L347.70 186.65L347.70 195.95Q347.70 198.15 346.55 199.30Q345.40 200.45 343.25 200.45Q341.10 200.45 339.95 199.30Q338.80 198.15 338.80 195.95L338.80 195.95L338.80 185.70Q338.80 183.55 338.15 182.60Q337.50 181.65 336 181.65L336 181.65Q334.20 181.65 333.22 182.95Q332.25 184.25 332.25 186.65L332.25 186.65L332.25 195.95Q332.25 200.45 327.75 200.45ZM381.75 200.55L381.75 200.55Q377.25 200.55 373.98 198.97Q370.70 197.40 368.95 194.50Q367.20 191.60 367.20 187.65L367.20 187.65Q367.20 183.85 368.88 180.97Q370.55 178.10 373.48 176.47Q376.40 174.85 380.15 174.85L380.15 174.85Q382.90 174.85 385.15 175.72Q387.40 176.60 389 178.28Q390.60 179.95 391.43 182.30Q392.25 184.65 392.25 187.55L392.25 187.55Q392.25 188.55 391.70 189.03Q391.15 189.50 389.95 189.50L389.95 189.50L375.70 189.50Q376.05 191.45 377.15 192.45L377.15 192.45Q378.70 194 382 194L382 194Q383.10 194 384.52 193.72Q385.95 193.45 387.25 192.95Q388.55 192.45 389.50 192.78Q390.45 193.10 390.98 193.88Q391.50 194.65 391.55 195.63Q391.60 196.60 391.10 197.53Q390.60 198.45 389.45 198.95L389.45 198.95Q387.70 199.75 385.73 200.15Q383.75 200.55 381.75 200.55ZM375.65 185.30L375.65 185.30L384.95 185.30Q384.85 183.90 384.45 182.95L384.45 182.95Q383.95 181.80 382.98 181.20Q382 180.60 380.55 180.60L380.55 180.60Q379 180.60 377.88 181.32Q376.75 182.05 376.15 183.45L376.15 183.45Q375.80 184.25 375.65 185.30ZM400.65 200.45L400.65 200.45Q398.45 200.45 397.27 199.30Q396.10 198.15 396.10 195.95L396.10 195.95L396.10 179.40Q396.10 177.25 397.23 176.10Q398.35 174.95 400.45 174.95Q402.55 174.95 403.65 176.10Q404.75 177.25 404.75 179.40L404.75 179.40L404.75 179.60Q405.45 177.85 406.85 176.70L406.85 176.70Q408.90 174.95 412 174.85L412 174.85Q413.45 174.80 414.18 175.57Q414.90 176.35 414.95 178.45L414.95 178.45Q414.95 180.25 414.20 181.30Q413.45 182.35 411.35 182.55L411.35 182.55L410.20 182.65Q407.55 182.90 406.35 184.13Q405.15 185.35 405.15 187.75L405.15 187.75L405.15 195.95Q405.15 198.15 404 199.30Q402.85 200.45 400.65 200.45ZM427.35 200.55L427.35 200.55Q425.15 200.55 422.88 200.22Q420.60 199.90 418.75 199.05L418.75 199.05Q417.50 198.55 416.97 197.70Q416.45 196.85 416.47 195.90Q416.50 194.95 417.02 194.18Q417.55 193.40 418.43 193.07Q419.30 192.75 420.40 193.15L420.40 193.15Q422.50 193.90 424.18 194.22Q425.85 194.55 427.40 194.55L427.40 194.55Q429.25 194.55 430.05 194.03Q430.85 193.50 430.85 192.65L430.85 192.65Q430.85 191.90 430.32 191.50Q429.80 191.10 428.85 190.95L428.85 190.95L423.30 190.05Q420.20 189.50 418.50 187.78Q416.80 186.05 416.80 183.25L416.80 183.25Q416.80 180.65 418.27 178.78Q419.75 176.90 422.32 175.88Q424.90 174.85 428.25 174.85L428.25 174.85Q430.50 174.85 432.35 175.18Q434.20 175.50 435.95 176.35L435.95 176.35Q437.05 176.80 437.50 177.65Q437.95 178.50 437.85 179.43Q437.75 180.35 437.22 181.13Q436.70 181.90 435.80 182.18Q434.90 182.45 433.70 182.05L433.70 182.05Q432.05 181.40 430.77 181.10Q429.50 180.80 428.40 180.80L428.40 180.80Q426.35 180.80 425.50 181.35Q424.65 181.90 424.65 182.75L424.65 182.75Q424.65 183.40 425.10 183.82Q425.55 184.25 426.50 184.40L426.50 184.40L432.05 185.35Q435.25 185.85 436.97 187.53Q438.70 189.20 438.70 192.05L438.70 192.05Q438.70 196.10 435.60 198.32Q432.50 200.55 427.35 200.55Z" fill="#1FB6B0"></path>
</svg>