<svg xmlns="http://www.w3.org/2000/svg" viewBox="0 0 780 150" width="780" height="150">
  <defs>
    <path id="star" d="M0,-12 L2.82,-3.88 L11.41,-3.71 L4.57,1.48 L7.05,9.71 L0,4.8 L-7.05,9.71 L-4.57,1.48 L-11.41,-3.71 L-2.82,-3.88 Z" stroke-linejoin="round"></path>
    <path id="sparkle" d="M0,-10 C2,-2 2,-2 10,0 C2,2 2,2 0,10 C-2,2 -2,2 -10,0 C-2,-2 -2,-2 0,-10 Z"></path>
    <g id="mark">
      <use href="#sparkle" transform="translate(50,52) scale(1.1) rotate(-8)" fill="#FF6BA6"></use>
      <use href="#star" transform="translate(156,40) scale(1.5)" fill="#FFC93C"></use>
      <use href="#sparkle" transform="translate(108,24) scale(0.7)" fill="#FFE08A"></use>
      <g fill="#2BC4BF">
        <rect x="34" y="84" width="136" height="34" rx="22"></rect>
        <circle cx="64" cy="88" r="28"></circle>
        <circle cx="100" cy="70" r="40"></circle>
        <circle cx="140" cy="88" r="30"></circle>
        <circle cx="120" cy="68" r="24"></circle>
      </g>
      <circle cx="88" cy="92" r="5.5" fill="#0E7C78"></circle>
      <circle cx="112" cy="92" r="5.5" fill="#0E7C78"></circle>
      <path d="M89,101 Q100,111 111,101" fill="none" stroke="#0E7C78" stroke-width="4.5" stroke-linecap="round"></path>
      <circle cx="76" cy="100" r="6" fill="#FF8FBA" opacity="0.65"></circle>
      <circle cx="124" cy="100" r="6" fill="#FF8FBA" opacity="0.65"></circle>
    </g>
  </defs>
  <use href="#mark" transform="translate(15,12) scale(0.92)"></use>
  <path d="M232.47 97L210.36 97Q207.46 97 205.84 95.38Q204.22 93.77 204.22 90.86L204.22 90.86L204.22 56.54Q204.22 53.57 205.81 51.99Q207.39 50.40 210.30 50.40L210.30 50.40Q213.27 50.40 214.82 51.99Q216.37 53.57 216.37 56.54L216.37 56.54L216.37 86.90L232.47 86.90Q234.98 86.90 236.33 88.19Q237.69 89.48 237.69 91.92L237.69 91.92Q237.69 94.36 236.33 95.68Q234.98 97 232.47 97L232.47 97ZM247.85 97.59L247.85 97.59Q245.08 97.59 243.56 95.94Q242.04 94.29 242.04 91.19L242.04 91.19L242.04 70.34Q242.04 67.23 243.56 65.58Q245.08 63.93 247.85 63.93L247.85 63.93Q250.69 63.93 252.24 65.58Q253.79 67.23 253.79 70.34L253.79 70.34L253.79 91.19Q253.79 94.29 252.27 95.94Q250.75 97.59 247.85 97.59ZM247.85 59.25L247.85 59.25Q244.75 59.25 243.07 57.80Q241.38 56.34 241.38 53.57L241.38 53.57Q241.38 50.87 243.07 49.41Q244.75 47.96 247.85 47.96L247.85 47.96Q251.08 47.96 252.73 49.41Q254.38 50.87 254.38 53.57L254.38 53.57Q254.38 56.34 252.73 57.80Q251.08 59.25 247.85 59.25ZM277.62 97.73L277.62 97.73Q272.67 97.73 269.47 96.21Q266.26 94.69 264.68 91.62Q263.10 88.55 263.10 83.93L263.10 83.93L263.10 73.17L260.85 73.17Q258.74 73.17 257.58 72.05Q256.43 70.93 256.43 68.82L256.43 68.82Q256.43 66.71 257.58 65.62Q258.74 64.53 260.85 64.53L260.85 64.53L263.10 64.53L263.10 60.44Q263.10 57.53 264.61 56.01Q266.13 54.50 268.97 54.50L268.97 54.50Q271.81 54.50 273.33 56.01Q274.84 57.53 274.84 60.44L274.84 60.44L274.84 64.53L280.26 64.53Q282.43 64.53 283.59 65.62Q284.74 66.71 284.74 68.82L284.74 68.82Q284.74 70.93 283.59 72.05Q282.43 73.17 280.26 73.17L280.26 73.17L274.84 73.17L274.84 83.54Q274.84 85.98 276.00 87.13Q277.15 88.29 279.66 88.29L279.66 88.29Q280.59 88.29 281.44 88.09Q282.30 87.89 283.03 87.89L283.03 87.89Q284.08 87.83 284.74 88.52Q285.40 89.21 285.40 91.65L285.40 91.65Q285.40 93.63 284.81 94.99Q284.22 96.34 282.70 96.93L282.70 96.93Q281.77 97.26 280.19 97.50Q278.61 97.73 277.62 97.73ZM302.76 97.73L302.76 97.73Q297.81 97.73 294.61 96.21Q291.41 94.69 289.83 91.62Q288.24 88.55 288.24 83.93L288.24 83.93L288.24 73.17L286.00 73.17Q283.89 73.17 282.73 72.05Q281.58 70.93 281.58 68.82L281.58 68.82Q281.58 66.71 282.73 65.62Q283.89 64.53 286.00 64.53L286.00 64.53L288.24 64.53L288.24 60.44Q288.24 57.53 289.76 56.01Q291.28 54.50 294.12 54.50L294.12 54.50Q296.95 54.50 298.47 56.01Q299.99 57.53 299.99 60.44L299.99 60.44L299.99 64.53L305.40 64.53Q307.58 64.53 308.73 65.62Q309.89 66.71 309.89 68.82L309.89 68.82Q309.89 70.93 308.73 72.05Q307.58 73.17 305.40 73.17L305.40 73.17L299.99 73.17L299.99 83.54Q299.99 85.98 301.14 87.13Q302.30 88.29 304.81 88.29L304.81 88.29Q305.73 88.29 306.59 88.09Q307.45 87.89 308.17 87.89L308.17 87.89Q309.23 87.83 309.89 88.52Q310.55 89.21 310.55 91.65L310.55 91.65Q310.55 93.63 309.96 94.99Q309.36 96.34 307.84 96.93L307.84 96.93Q306.92 97.26 305.34 97.50Q303.75 97.73 302.76 97.73ZM327.31 97.73L327.31 97.73Q320.98 97.73 317.97 94.33Q314.97 90.93 314.97 84.06L314.97 84.06L314.97 55.82Q314.97 52.91 316.49 51.39Q318.01 49.88 320.78 49.88L320.78 49.88Q323.62 49.88 325.17 51.39Q326.72 52.91 326.72 55.82L326.72 55.82L326.72 83.67Q326.72 86.11 327.68 87.23Q328.63 88.35 330.15 88.35L330.15 88.35Q330.61 88.35 331.11 88.25Q331.60 88.16 332.20 88.09L332.20 88.09Q333.32 88.09 333.88 88.95Q334.44 89.81 334.44 92.45L334.44 92.45Q334.44 94.76 333.52 95.91Q332.59 97.07 330.68 97.40L330.68 97.40Q330.15 97.46 329.16 97.59Q328.17 97.73 327.31 97.73ZM355.30 97.73L355.30 97.73Q349.36 97.73 345.04 95.65Q340.71 93.57 338.40 89.74Q336.09 85.91 336.09 80.70L336.09 80.70Q336.09 75.68 338.30 71.89Q340.51 68.09 344.38 65.95Q348.24 63.80 353.19 63.80L353.19 63.80Q356.82 63.80 359.79 64.96Q362.76 66.11 364.87 68.32Q366.98 70.53 368.07 73.64Q369.16 76.74 369.16 80.57L369.16 80.57Q369.16 81.89 368.43 82.51Q367.71 83.14 366.12 83.14L366.12 83.14L347.31 83.14Q347.77 85.71 349.23 87.03L349.23 87.03Q351.27 89.08 355.63 89.08L355.63 89.08Q357.08 89.08 358.96 88.72Q360.84 88.35 362.56 87.69Q364.27 87.03 365.53 87.46Q366.78 87.89 367.48 88.91Q368.17 89.94 368.23 91.22Q368.30 92.51 367.64 93.73Q366.98 94.95 365.46 95.61L365.46 95.61Q363.15 96.67 360.55 97.20Q357.94 97.73 355.30 97.73ZM347.25 77.60L347.25 77.60L359.52 77.60Q359.39 75.75 358.86 74.49L358.86 74.49Q358.20 72.98 356.92 72.18Q355.63 71.39 353.71 71.39L353.71 71.39Q351.67 71.39 350.18 72.35Q348.70 73.31 347.91 75.15L347.91 75.15Q347.44 76.21 347.25 77.60Z" fill="#FF6BA6"></path>
  <path d="M413.18 97L400.24 97Q397.14 97 395.52 95.38Q393.91 93.77 393.91 90.73L393.91 90.73L393.91 56.74Q393.91 53.70 395.52 52.09Q397.14 50.47 400.24 50.47L400.24 50.47L413.18 50.47Q425.32 50.47 431.96 56.54Q438.59 62.61 438.59 73.70L438.59 73.70Q438.59 79.25 436.87 83.57Q435.16 87.89 431.92 90.89Q428.69 93.90 423.97 95.45Q419.25 97 413.18 97L413.18 97ZM406.05 60.30L406.05 87.17L412.39 87.17Q415.89 87.17 418.43 86.31Q420.97 85.45 422.65 83.80Q424.33 82.15 425.16 79.64Q425.98 77.13 425.98 73.70L425.98 73.70Q425.98 66.84 422.62 63.57Q419.25 60.30 412.39 60.30L412.39 60.30L406.05 60.30ZM451.00 97.59L451.00 97.59Q448.09 97.59 446.54 96.08Q444.99 94.56 444.99 91.65L444.99 91.65L444.99 69.81Q444.99 66.97 446.48 65.45Q447.96 63.93 450.73 63.93Q453.51 63.93 454.96 65.45Q456.41 66.97 456.41 69.81L456.41 69.81L456.41 70.07Q457.33 67.76 459.18 66.24L459.18 66.24Q461.89 63.93 465.98 63.80L465.98 63.80Q467.89 63.74 468.85 64.76Q469.81 65.78 469.87 68.55L469.87 68.55Q469.87 70.93 468.88 72.32Q467.89 73.70 465.12 73.97L465.12 73.97L463.60 74.10Q460.11 74.43 458.52 76.05Q456.94 77.66 456.94 80.83L456.94 80.83L456.94 91.65Q456.94 94.56 455.42 96.08Q453.90 97.59 451.00 97.59ZM490.73 97.73L490.73 97.73Q484.79 97.73 480.47 95.65Q476.14 93.57 473.83 89.74Q471.52 85.91 471.52 80.70L471.52 80.70Q471.52 75.68 473.73 71.89Q475.95 68.09 479.81 65.95Q483.67 63.80 488.62 63.80L488.62 63.80Q492.25 63.80 495.22 64.96Q498.19 66.11 500.30 68.32Q502.41 70.53 503.50 73.64Q504.59 76.74 504.59 80.57L504.59 80.57Q504.59 81.89 503.86 82.51Q503.14 83.14 501.55 83.14L501.55 83.14L482.74 83.14Q483.21 85.71 484.66 87.03L484.66 87.03Q486.70 89.08 491.06 89.08L491.06 89.08Q492.51 89.08 494.39 88.72Q496.27 88.35 497.99 87.69Q499.71 87.03 500.96 87.46Q502.21 87.89 502.91 88.91Q503.60 89.94 503.67 91.22Q503.73 92.51 503.07 93.73Q502.41 94.95 500.89 95.61L500.89 95.61Q498.58 96.67 495.98 97.20Q493.37 97.73 490.73 97.73ZM482.68 77.60L482.68 77.60L494.95 77.60Q494.82 75.75 494.29 74.49L494.29 74.49Q493.63 72.98 492.35 72.18Q491.06 71.39 489.15 71.39L489.15 71.39Q487.10 71.39 485.61 72.35Q484.13 73.31 483.34 75.15L483.34 75.15Q482.88 76.21 482.68 77.60ZM520.96 97.73L520.96 97.73Q517.20 97.73 514.32 96.34Q511.45 94.95 509.84 92.55Q508.22 90.14 508.22 87.03L508.22 87.03Q508.22 83.47 510.07 81.42Q511.92 79.38 516.01 78.49Q520.10 77.60 526.90 77.60L526.90 77.60L529.41 77.60L529.41 76.67Q529.41 74.30 528.18 73.31Q526.96 72.32 523.99 72.32L523.99 72.32Q522.41 72.32 520.43 72.68Q518.45 73.04 516.01 73.97L516.01 73.97Q514.23 74.63 512.97 74.16Q511.72 73.70 511.02 72.58Q510.33 71.46 510.36 70.14Q510.40 68.82 511.22 67.63Q512.05 66.44 513.76 65.78L513.76 65.78Q516.93 64.59 519.60 64.20Q522.28 63.80 524.52 63.80L524.52 63.80Q529.93 63.80 533.46 65.35Q537.00 66.90 538.75 70.11Q540.49 73.31 540.49 78.32L540.49 78.32L540.49 91.65Q540.49 94.56 539.11 96.08Q537.72 97.59 535.08 97.59L535.08 97.59Q532.38 97.59 530.99 96.08L530.99 96.08Q529.74 94.76 529.54 92.38L529.54 92.38Q529.14 93.57 528.42 94.49L528.42 94.49Q527.23 96.01 525.31 96.87Q523.40 97.73 520.96 97.73ZM529.41 84.33L529.41 83.14L526.90 83.14Q524.32 83.14 522.64 83.50Q520.96 83.87 520.17 84.63Q519.37 85.38 519.37 86.57L519.37 86.57Q519.37 88.09 520.46 89.08Q521.55 90.07 523.60 90.07L523.60 90.07Q525.25 90.07 526.53 89.34Q527.82 88.62 528.61 87.33Q529.41 86.04 529.41 84.33L529.41 84.33ZM553.10 97.59L553.10 97.59Q550.33 97.59 548.81 96.08Q547.29 94.56 547.29 91.65L547.29 91.65L547.29 69.81Q547.29 66.97 548.78 65.45Q550.26 63.93 553.03 63.93Q555.81 63.93 557.26 65.45L557.26 65.45Q558.51 66.71 558.64 68.95L558.64 68.95Q559.96 66.90 562.14 65.52L562.14 65.52Q564.85 63.80 568.61 63.80L568.61 63.80Q572.17 63.80 574.75 65.52L574.75 65.52Q576.86 66.97 577.98 69.68L577.98 69.68Q579.50 67.17 582.01 65.65L582.01 65.65Q585.04 63.80 588.74 63.80L588.74 63.80Q592.57 63.80 595.01 65.29Q597.45 66.77 598.67 69.91Q599.89 73.04 599.89 77.79L599.89 77.79L599.89 91.65Q599.89 94.56 598.34 96.08Q596.79 97.59 593.95 97.59L593.95 97.59Q591.18 97.59 589.66 96.08Q588.15 94.56 588.15 91.65L588.15 91.65L588.15 78.12Q588.15 75.29 587.29 74.03Q586.43 72.78 584.45 72.78L584.45 72.78Q582.01 72.78 580.72 74.49Q579.43 76.21 579.43 79.38L579.43 79.38L579.43 91.65Q579.43 94.56 577.92 96.08Q576.40 97.59 573.56 97.59Q570.72 97.59 569.20 96.08Q567.69 94.56 567.69 91.65L567.69 91.65L567.69 78.12Q567.69 75.29 566.83 74.03Q565.97 72.78 563.99 72.78L563.99 72.78Q561.61 72.78 560.33 74.49Q559.04 76.21 559.04 79.38L559.04 79.38L559.04 91.65Q559.04 97.59 553.10 97.59ZM624.38 97.73L624.38 97.73Q618.44 97.73 614.12 95.65Q609.79 93.57 607.48 89.74Q605.17 85.91 605.17 80.70L605.17 80.70Q605.17 75.68 607.38 71.89Q609.60 68.09 613.46 65.95Q617.32 63.80 622.27 63.80L622.27 63.80Q625.90 63.80 628.87 64.96Q631.84 66.11 633.95 68.32Q636.06 70.53 637.15 73.64Q638.24 76.74 638.24 80.57L638.24 80.57Q638.24 81.89 637.51 82.51Q636.79 83.14 635.20 83.14L635.20 83.14L616.39 83.14Q616.86 85.71 618.31 87.03L618.31 87.03Q620.35 89.08 624.71 89.08L624.71 89.08Q626.16 89.08 628.04 88.72Q629.92 88.35 631.64 87.69Q633.36 87.03 634.61 87.46Q635.86 87.89 636.56 88.91Q637.25 89.94 637.32 91.22Q637.38 92.51 636.72 93.73Q636.06 94.95 634.54 95.61L634.54 95.61Q632.23 96.67 629.63 97.20Q627.02 97.73 624.38 97.73ZM616.33 77.60L616.33 77.60L628.60 77.60Q628.47 75.75 627.94 74.49L627.94 74.49Q627.28 72.98 626.00 72.18Q624.71 71.39 622.80 71.39L622.80 71.39Q620.75 71.39 619.26 72.35Q617.78 73.31 616.99 75.15L616.99 75.15Q616.53 76.21 616.33 77.60ZM649.33 97.59L649.33 97.59Q646.42 97.59 644.87 96.08Q643.32 94.56 643.32 91.65L643.32 91.65L643.32 69.81Q643.32 66.97 644.81 65.45Q646.29 63.93 649.06 63.93Q651.84 63.93 653.29 65.45Q654.74 66.97 654.74 69.81L654.74 69.81L654.74 70.07Q655.66 67.76 657.51 66.24L657.51 66.24Q660.22 63.93 664.31 63.80L664.31 63.80Q666.22 63.74 667.18 64.76Q668.14 65.78 668.20 68.55L668.20 68.55Q668.20 70.93 667.21 72.32Q666.22 73.70 663.45 73.97L663.45 73.97L661.93 74.10Q658.44 74.43 656.85 76.05Q655.27 77.66 655.27 80.83L655.27 80.83L655.27 91.65Q655.27 94.56 653.75 96.08Q652.23 97.59 649.33 97.59ZM684.57 97.73L684.57 97.73Q681.67 97.73 678.66 97.30Q675.66 96.87 673.22 95.75L673.22 95.75Q671.57 95.09 670.88 93.96Q670.18 92.84 670.22 91.59Q670.25 90.33 670.94 89.31Q671.64 88.29 672.79 87.86Q673.95 87.43 675.40 87.96L675.40 87.96Q678.17 88.95 680.38 89.38Q682.59 89.81 684.64 89.81L684.64 89.81Q687.08 89.81 688.14 89.11Q689.19 88.42 689.19 87.30L689.19 87.30Q689.19 86.31 688.50 85.78Q687.81 85.25 686.55 85.05L686.55 85.05L679.23 83.87Q675.13 83.14 672.89 80.86Q670.65 78.59 670.65 74.89L670.65 74.89Q670.65 71.46 672.59 68.98Q674.54 66.51 677.94 65.16Q681.34 63.80 685.76 63.80L685.76 63.80Q688.73 63.80 691.17 64.23Q693.61 64.66 695.92 65.78L695.92 65.78Q697.38 66.38 697.97 67.50Q698.56 68.62 698.43 69.84Q698.30 71.06 697.61 72.08Q696.91 73.11 695.73 73.47Q694.54 73.83 692.95 73.31L692.95 73.31Q690.78 72.45 689.09 72.05Q687.41 71.66 685.96 71.66L685.96 71.66Q683.25 71.66 682.13 72.38Q681.01 73.11 681.01 74.23L681.01 74.23Q681.01 75.09 681.60 75.65Q682.20 76.21 683.45 76.41L683.45 76.41L690.78 77.66Q695 78.32 697.28 80.53Q699.55 82.74 699.55 86.51L699.55 86.51Q699.55 91.85 695.46 94.79Q691.37 97.73 684.57 97.73Z" fill="#1FB6B0"></path>
</svg>